<?xml version="1.0" encoding="UTF-8"?>
<svg id="_レイヤー_1" data-name="レイヤー 1" xmlns="http://www.w3.org/2000/svg" viewBox="0 0 156.01 95.1">
  <defs>
    <style>
      .cls-1, .cls-2 {
        font-family: Impact, Impact;
        font-size: 77.58px;
        letter-spacing: .07em;
      }

      .cls-2 {
        fill: #d3ecff;
      }
    </style>
  </defs>
  <text class="cls-1" transform="translate(3.09 69.45)"><tspan x="0" y="0">AKM</tspan></text>
  <g>
    <g>
      <path d="m24.51,79.54l-.86-11.02h-1.42l-.96,11.02H0L8.75,13.56h27.1l9.81,65.98h-21.15Zm-1.72-26.55c-.06-.56-.12-1.13-.18-1.7-.06.59-.11,1.16-.17,1.7h.35Z"/>
      <polygon points="71.68 79.54 69.37 70.15 69.37 79.54 48.77 79.54 48.77 13.56 69.37 13.56 69.37 23.75 72.41 13.56 92.33 13.56 82.4 43.61 93.1 79.54 71.68 79.54"/>
      <path d="m131.1,79.54v-8.97s-1.21,8.97-1.21,8.97h-13.94l-1.53-10.54v10.54h-18.6V13.56h24.93l.32,1.95c.56,3.35,1.14,7.3,1.73,11.75l1.75-13.69h25.12v65.98h-18.59Z"/>
    </g>
    <g>
      <path d="m24.51,79.15l-.86-11.02h-1.42l-.96,11.02H0L8.75,13.17h27.1l9.81,65.98h-21.15Zm-1.72-26.55c-.06-.56-.12-1.13-.18-1.7-.06.59-.11,1.16-.17,1.7h.35Z"/>
      <polygon points="71.68 79.15 69.37 69.76 69.37 79.15 48.77 79.15 48.77 13.17 69.37 13.17 69.37 23.37 72.41 13.17 92.33 13.17 82.4 43.22 93.1 79.15 71.68 79.15"/>
      <path d="m131.1,79.15v-8.97s-1.21,8.97-1.21,8.97h-13.94l-1.53-10.54v10.54h-18.6V13.17h24.93l.32,1.95c.56,3.35,1.14,7.3,1.73,11.75l1.75-13.69h25.12v65.98h-18.59Z"/>
    </g>
    <g>
      <path d="m24.51,78.76l-.86-11.02h-1.42l-.96,11.02H0L8.75,12.78h27.1l9.81,65.98h-21.15Zm-1.72-26.55c-.06-.56-.12-1.13-.18-1.7-.06.59-.11,1.16-.17,1.7h.35Z"/>
      <polygon points="71.68 78.76 69.37 69.37 69.37 78.76 48.77 78.76 48.77 12.78 69.37 12.78 69.37 22.98 72.41 12.78 92.33 12.78 82.4 42.83 93.1 78.76 71.68 78.76"/>
      <path d="m131.1,78.76v-8.97s-1.21,8.97-1.21,8.97h-13.94l-1.53-10.54v10.54h-18.6V12.78h24.93l.32,1.95c.56,3.35,1.14,7.3,1.73,11.75l1.75-13.69h25.12v65.98h-18.59Z"/>
    </g>
    <g>
      <path d="m24.51,78.37l-.86-11.02h-1.42l-.96,11.02H0L8.75,12.39h27.1l9.81,65.98h-21.15Zm-1.72-26.55c-.06-.56-.12-1.13-.18-1.7-.06.59-.11,1.16-.17,1.7h.35Z"/>
      <polygon points="71.68 78.37 69.37 68.99 69.37 78.37 48.77 78.37 48.77 12.39 69.37 12.39 69.37 22.59 72.41 12.39 92.33 12.39 82.4 42.45 93.1 78.37 71.68 78.37"/>
      <path d="m131.1,78.37v-8.97s-1.21,8.97-1.21,8.97h-13.94l-1.53-10.54v10.54h-18.6V12.39h24.93l.32,1.95c.56,3.35,1.14,7.3,1.73,11.75l1.75-13.69h25.12v65.98h-18.59Z"/>
    </g>
    <g>
      <path d="m24.51,77.98l-.86-11.02h-1.42l-.96,11.02H0L8.75,12h27.1l9.81,65.98h-21.15Zm-1.72-26.55c-.06-.56-.12-1.13-.18-1.7-.06.59-.11,1.16-.17,1.7h.35Z"/>
      <polygon points="71.68 77.98 69.37 68.6 69.37 77.98 48.77 77.98 48.77 12 69.37 12 69.37 22.2 72.41 12 92.33 12 82.4 42.06 93.1 77.98 71.68 77.98"/>
      <path d="m131.1,77.98v-8.97s-1.21,8.97-1.21,8.97h-13.94l-1.53-10.54v10.54h-18.6V12h24.93l.32,1.95c.56,3.35,1.14,7.3,1.73,11.75l1.75-13.69h25.12v65.98h-18.59Z"/>
    </g>
    <g>
      <path d="m24.51,77.6l-.86-11.02h-1.42l-.96,11.02H0L8.75,11.62h27.1l9.81,65.98h-21.15Zm-1.72-26.55c-.06-.56-.12-1.13-.18-1.7-.06.59-.11,1.16-.17,1.7h.35Z"/>
      <polygon points="71.68 77.6 69.37 68.21 69.37 77.6 48.77 77.6 48.77 11.62 69.37 11.62 69.37 21.82 72.41 11.62 92.33 11.62 82.4 41.67 93.1 77.6 71.68 77.6"/>
      <path d="m131.1,77.6v-8.97s-1.21,8.97-1.21,8.97h-13.94l-1.53-10.54v10.54h-18.6V11.62h24.93l.32,1.95c.56,3.35,1.14,7.3,1.73,11.75l1.75-13.69h25.12v65.98h-18.59Z"/>
    </g>
    <g>
      <path d="m24.51,77.21l-.86-11.02h-1.42l-.96,11.02H0L8.75,11.23h27.1l9.81,65.98h-21.15Zm-1.72-26.55c-.06-.56-.12-1.13-.18-1.7-.06.59-.11,1.16-.17,1.7h.35Z"/>
      <polygon points="71.68 77.21 69.37 67.82 69.37 77.21 48.77 77.21 48.77 11.23 69.37 11.23 69.37 21.43 72.41 11.23 92.33 11.23 82.4 41.28 93.1 77.21 71.68 77.21"/>
      <path d="m131.1,77.21v-8.97s-1.21,8.97-1.21,8.97h-13.94l-1.53-10.54v10.54h-18.6V11.23h24.93l.32,1.95c.56,3.35,1.14,7.3,1.73,11.75l1.75-13.69h25.12v65.98h-18.59Z"/>
    </g>
    <g>
      <path d="m24.51,76.82l-.86-11.02h-1.42l-.96,11.02H0L8.75,10.84h27.1l9.81,65.98h-21.15Zm-1.72-26.55c-.06-.56-.12-1.13-.18-1.7-.06.59-.11,1.16-.17,1.7h.35Z"/>
      <polygon points="71.68 76.82 69.37 67.43 69.37 76.82 48.77 76.82 48.77 10.84 69.37 10.84 69.37 21.04 72.41 10.84 92.33 10.84 82.4 40.89 93.1 76.82 71.68 76.82"/>
      <path d="m131.1,76.82v-8.97s-1.21,8.97-1.21,8.97h-13.94l-1.53-10.54v10.54h-18.6V10.84h24.93l.32,1.95c.56,3.35,1.14,7.3,1.73,11.75l1.75-13.69h25.12v65.98h-18.59Z"/>
    </g>
    <g>
      <path d="m24.51,76.43l-.86-11.02h-1.42l-.96,11.02H0L8.75,10.45h27.1l9.81,65.98h-21.15Zm-1.72-26.55c-.06-.56-.12-1.13-.18-1.7-.06.59-.11,1.16-.17,1.7h.35Z"/>
      <polygon points="71.68 76.43 69.37 67.05 69.37 76.43 48.77 76.43 48.77 10.45 69.37 10.45 69.37 20.65 72.41 10.45 92.33 10.45 82.4 40.51 93.1 76.43 71.68 76.43"/>
      <path d="m131.1,76.43v-8.97s-1.21,8.97-1.21,8.97h-13.94l-1.53-10.54v10.54h-18.6V10.45h24.93l.32,1.95c.56,3.35,1.14,7.3,1.73,11.75l1.75-13.69h25.12v65.98h-18.59Z"/>
    </g>
    <g>
      <path d="m24.51,76.05l-.86-11.02h-1.42l-.96,11.02H0L8.75,10.06h27.1l9.81,65.98h-21.15Zm-1.72-26.55c-.06-.56-.12-1.13-.18-1.7-.06.59-.11,1.16-.17,1.7h.35Z"/>
      <polygon points="71.68 76.05 69.37 66.66 69.37 76.05 48.77 76.05 48.77 10.06 69.37 10.06 69.37 20.26 72.41 10.06 92.33 10.06 82.4 40.12 93.1 76.05 71.68 76.05"/>
      <path d="m131.1,76.05v-8.97s-1.21,8.97-1.21,8.97h-13.94l-1.53-10.54v10.54h-18.6V10.06h24.93l.32,1.95c.56,3.35,1.14,7.3,1.73,11.75l1.75-13.69h25.12v65.98h-18.59Z"/>
    </g>
    <g>
      <path d="m24.51,75.66l-.86-11.02h-1.42l-.96,11.02H0L8.75,9.68h27.1l9.81,65.98h-21.15Zm-1.72-26.55c-.06-.56-.12-1.13-.18-1.7-.06.59-.11,1.16-.17,1.7h.35Z"/>
      <polygon points="71.68 75.66 69.37 66.27 69.37 75.66 48.77 75.66 48.77 9.68 69.37 9.68 69.37 19.88 72.41 9.68 92.33 9.68 82.4 39.73 93.1 75.66 71.68 75.66"/>
      <path d="m131.1,75.66v-8.97s-1.21,8.97-1.21,8.97h-13.94l-1.53-10.54v10.54h-18.6V9.68h24.93l.32,1.95c.56,3.35,1.14,7.3,1.73,11.75l1.75-13.69h25.12v65.98h-18.59Z"/>
    </g>
    <g>
      <path d="m24.51,75.27l-.86-11.02h-1.42l-.96,11.02H0L8.75,9.29h27.1l9.81,65.98h-21.15Zm-1.72-26.55c-.06-.56-.12-1.13-.18-1.7-.06.59-.11,1.16-.17,1.7h.35Z"/>
      <polygon points="71.68 75.27 69.37 65.88 69.37 75.27 48.77 75.27 48.77 9.29 69.37 9.29 69.37 19.49 72.41 9.29 92.33 9.29 82.4 39.34 93.1 75.27 71.68 75.27"/>
      <path d="m131.1,75.27v-8.97s-1.21,8.97-1.21,8.97h-13.94l-1.53-10.54v10.54h-18.6V9.29h24.93l.32,1.95c.56,3.35,1.14,7.3,1.73,11.75l1.75-13.69h25.12v65.98h-18.59Z"/>
    </g>
    <g>
      <path d="m24.51,74.88l-.86-11.02h-1.42l-.96,11.02H0L8.75,8.9h27.1l9.81,65.98h-21.15Zm-1.72-26.55c-.06-.56-.12-1.13-.18-1.7-.06.59-.11,1.16-.17,1.7h.35Z"/>
      <polygon points="71.68 74.88 69.37 65.49 69.37 74.88 48.77 74.88 48.77 8.9 69.37 8.9 69.37 19.1 72.41 8.9 92.33 8.9 82.4 38.95 93.1 74.88 71.68 74.88"/>
      <path d="m131.1,74.88v-8.97s-1.21,8.97-1.21,8.97h-13.94l-1.53-10.54v10.54h-18.6V8.9h24.93l.32,1.95c.56,3.35,1.14,7.3,1.73,11.75l1.75-13.69h25.12v65.98h-18.59Z"/>
    </g>
    <g>
      <path d="m24.51,74.49l-.86-11.02h-1.42l-.96,11.02H0L8.75,8.51h27.1l9.81,65.98h-21.15Zm-1.72-26.55c-.06-.56-.12-1.13-.18-1.7-.06.59-.11,1.16-.17,1.7h.35Z"/>
      <polygon points="71.68 74.49 69.37 65.11 69.37 74.49 48.77 74.49 48.77 8.51 69.37 8.51 69.37 18.71 72.41 8.51 92.33 8.51 82.4 38.57 93.1 74.49 71.68 74.49"/>
      <path d="m131.1,74.49v-8.97s-1.21,8.97-1.21,8.97h-13.94l-1.53-10.54v10.54h-18.6V8.51h24.93l.32,1.95c.56,3.35,1.14,7.3,1.73,11.75l1.75-13.69h25.12v65.98h-18.59Z"/>
    </g>
    <g>
      <path d="m24.51,74.11l-.86-11.02h-1.42l-.96,11.02H0L8.75,8.13h27.1l9.81,65.98h-21.15Zm-1.72-26.55c-.06-.56-.12-1.13-.18-1.7-.06.59-.11,1.16-.17,1.7h.35Z"/>
      <polygon points="71.68 74.11 69.37 64.72 69.37 74.11 48.77 74.11 48.77 8.13 69.37 8.13 69.37 18.32 72.41 8.13 92.33 8.13 82.4 38.18 93.1 74.11 71.68 74.11"/>
      <path d="m131.1,74.11v-8.97s-1.21,8.97-1.21,8.97h-13.94l-1.53-10.54v10.54h-18.6V8.13h24.93l.32,1.95c.56,3.35,1.14,7.3,1.73,11.75l1.75-13.69h25.12v65.98h-18.59Z"/>
    </g>
    <g>
      <path d="m24.51,73.72l-.86-11.02h-1.42l-.96,11.02H0L8.75,7.74h27.1l9.81,65.98h-21.15Zm-1.72-26.55c-.06-.56-.12-1.13-.18-1.7-.06.59-.11,1.16-.17,1.7h.35Z"/>
      <polygon points="71.68 73.72 69.37 64.33 69.37 73.72 48.77 73.72 48.77 7.74 69.37 7.74 69.37 17.94 72.41 7.74 92.33 7.74 82.4 37.79 93.1 73.72 71.68 73.72"/>
      <path d="m131.1,73.72v-8.97s-1.21,8.97-1.21,8.97h-13.94l-1.53-10.54v10.54h-18.6V7.74h24.93l.32,1.95c.56,3.35,1.14,7.3,1.73,11.75l1.75-13.69h25.12v65.98h-18.59Z"/>
    </g>
    <g>
      <path d="m24.51,73.33l-.86-11.02h-1.42l-.96,11.02H0L8.75,7.35h27.1l9.81,65.98h-21.15Zm-1.72-26.55c-.06-.56-.12-1.13-.18-1.7-.06.59-.11,1.16-.17,1.7h.35Z"/>
      <polygon points="71.68 73.33 69.37 63.94 69.37 73.33 48.77 73.33 48.77 7.35 69.37 7.35 69.37 17.55 72.41 7.35 92.33 7.35 82.4 37.4 93.1 73.33 71.68 73.33"/>
      <path d="m131.1,73.33v-8.97s-1.21,8.97-1.21,8.97h-13.94l-1.53-10.54v10.54h-18.6V7.35h24.93l.32,1.95c.56,3.35,1.14,7.3,1.73,11.75l1.75-13.69h25.12v65.98h-18.59Z"/>
    </g>
    <g>
      <path d="m24.51,72.94l-.86-11.02h-1.42l-.96,11.02H0L8.75,6.96h27.1l9.81,65.98h-21.15Zm-1.72-26.55c-.06-.56-.12-1.13-.18-1.7-.06.59-.11,1.16-.17,1.7h.35Z"/>
      <polygon points="71.68 72.94 69.37 63.55 69.37 72.94 48.77 72.94 48.77 6.96 69.37 6.96 69.37 17.16 72.41 6.96 92.33 6.96 82.4 37.01 93.1 72.94 71.68 72.94"/>
      <path d="m131.1,72.94v-8.97s-1.21,8.97-1.21,8.97h-13.94l-1.53-10.54v10.54h-18.6V6.96h24.93l.32,1.95c.56,3.35,1.14,7.3,1.73,11.75l1.75-13.69h25.12v65.98h-18.59Z"/>
    </g>
    <g>
      <path d="m24.51,72.55l-.86-11.02h-1.42l-.96,11.02H0L8.75,6.57h27.1l9.81,65.98h-21.15Zm-1.72-26.55c-.06-.56-.12-1.13-.18-1.7-.06.59-.11,1.16-.17,1.7h.35Z"/>
      <polygon points="71.68 72.55 69.37 63.17 69.37 72.55 48.77 72.55 48.77 6.57 69.37 6.57 69.37 16.77 72.41 6.57 92.33 6.57 82.4 36.63 93.1 72.55 71.68 72.55"/>
      <path d="m131.1,72.55v-8.97s-1.21,8.97-1.21,8.97h-13.94l-1.53-10.54v10.54h-18.6V6.57h24.93l.32,1.95c.56,3.35,1.14,7.3,1.73,11.75l1.75-13.69h25.12v65.98h-18.59Z"/>
    </g>
    <g>
      <path d="m24.51,72.17l-.86-11.02h-1.42l-.96,11.02H0L8.75,6.19h27.1l9.81,65.98h-21.15Zm-1.72-26.55c-.06-.56-.12-1.13-.18-1.7-.06.59-.11,1.16-.17,1.7h.35Z"/>
      <polygon points="71.68 72.17 69.37 62.78 69.37 72.17 48.77 72.17 48.77 6.19 69.37 6.19 69.37 16.38 72.41 6.19 92.33 6.19 82.4 36.24 93.1 72.17 71.68 72.17"/>
      <path d="m131.1,72.17v-8.97s-1.21,8.97-1.21,8.97h-13.94l-1.53-10.54v10.54h-18.6V6.19h24.93l.32,1.95c.56,3.35,1.14,7.3,1.73,11.75l1.75-13.69h25.12v65.98h-18.59Z"/>
    </g>
    <g>
      <path d="m24.51,71.78l-.86-11.02h-1.42l-.96,11.02H0L8.75,5.8h27.1l9.81,65.98h-21.15Zm-1.72-26.55c-.06-.56-.12-1.13-.18-1.7-.06.59-.11,1.16-.17,1.7h.35Z"/>
      <polygon points="71.68 71.78 69.37 62.39 69.37 71.78 48.77 71.78 48.77 5.8 69.37 5.8 69.37 16 72.41 5.8 92.33 5.8 82.4 35.85 93.1 71.78 71.68 71.78"/>
      <path d="m131.1,71.78v-8.97s-1.21,8.97-1.21,8.97h-13.94l-1.53-10.54v10.54h-18.6V5.8h24.93l.32,1.95c.56,3.35,1.14,7.3,1.73,11.75l1.75-13.69h25.12v65.98h-18.59Z"/>
    </g>
  </g>
  <text class="cls-2" transform="translate(3.09 69.45)"><tspan x="0" y="0">AKM</tspan></text>
</svg>